HIERARCHY
ROOT Pelvis
{
	OFFSET 0.000000 0.941512 0.000000
	CHANNELS 6 Xposition Yposition Zposition Zrotation Yrotation Xrotation 
	JOINT Pelvis_L_Hip
	{
		OFFSET 0.000000 0.000000 0.000000
		CHANNELS 3 Zrotation Yrotation Xrotation
		JOINT L_Hip
		{
			OFFSET 0.062321 -0.080322 -0.016990
			CHANNELS 3 Zrotation Yrotation Xrotation
			JOINT L_Knee
			{
				OFFSET 0.093051 -0.381305 -0.029784
				CHANNELS 3 Zrotation Yrotation Xrotation
				JOINT L_Ankle
				{
					OFFSET -0.010371 -0.431000 -0.033614
					CHANNELS 3 Zrotation Yrotation Xrotation
					End Site #name: L_Foot
					{
						OFFSET 0.069299 -0.038670 0.119418
					}
				}
			}
		}
	}
	JOINT Pelvis_R_Hip
	{
		OFFSET 0.000000 0.000000 0.000000
		CHANNELS 3 Zrotation Yrotation Xrotation
		JOINT R_Hip
		{
			OFFSET -0.055334 -0.094904 -0.002373
			CHANNELS 3 Zrotation Yrotation Xrotation
			JOINT R_Knee
			{
				OFFSET -0.064207 -0.384370 -0.019592
				CHANNELS 3 Zrotation Yrotation Xrotation
				JOINT R_Ankle
				{
					OFFSET 0.025418 -0.419734 -0.065953
					CHANNELS 3 Zrotation Yrotation Xrotation
					End Site #name: R_Foot
					{
						OFFSET -0.057233 -0.039888 0.132134
					}
				}
			}
		}
	}
	JOINT Pelvis_Spine1
	{
		OFFSET 0.000000 0.000000 0.000000
		CHANNELS 3 Zrotation Yrotation Xrotation
		JOINT Spine1
		{
			OFFSET -0.005562 0.124093 -0.043360
			CHANNELS 3 Zrotation Yrotation Xrotation
			JOINT Spine2
			{
				OFFSET 0.012244 0.139499 0.029894
				CHANNELS 3 Zrotation Yrotation Xrotation
				JOINT Spine3
				{
					OFFSET -0.002556 0.056561 0.009225
					CHANNELS 3 Zrotation Yrotation Xrotation
					JOINT Spine3_Neck
					{
						OFFSET 0.000000 0.000000 0.000000
						CHANNELS 3 Zrotation Yrotation Xrotation
						JOINT Neck
						{
							OFFSET -0.005205 0.217920 -0.024551
							CHANNELS 3 Zrotation Yrotation Xrotation
							End Site #name: Head
							{
								OFFSET 0.002365 0.091850 0.046637
							}
						}
					}
					JOINT Spine3_L_Collar
					{
						OFFSET 0.000000 0.000000 0.000000
						CHANNELS 3 Zrotation Yrotation Xrotation
						JOINT L_Collar
						{
							OFFSET 0.072225 0.116603 -0.009480
							CHANNELS 3 Zrotation Yrotation Xrotation
							JOINT L_Shoulder
							{
								OFFSET 0.115937 -0.058643 -0.021018
								CHANNELS 3 Zrotation Yrotation Xrotation
								JOINT L_Elbow
								{
									OFFSET 0.021994 -0.254722 -0.024492
									CHANNELS 3 Zrotation Yrotation Xrotation
									End Site #name: L_Wrist
									{
										OFFSET 0.048810 -0.240214 0.103329
									}
								}
							}
						}
					}
					JOINT Spine3_R_Collar
					{
						OFFSET 0.000000 0.000000 0.000000
						CHANNELS 3 Zrotation Yrotation Xrotation
						JOINT R_Collar
						{
							OFFSET -0.073372 0.120704 -0.024611
							CHANNELS 3 Zrotation Yrotation Xrotation
							JOINT R_Shoulder
							{
								OFFSET -0.108089 -0.054969 -0.020504
								CHANNELS 3 Zrotation Yrotation Xrotation
								JOINT R_Elbow
								{
									OFFSET -0.033684 -0.260739 0.009889
									CHANNELS 3 Zrotation Yrotation Xrotation
									End Site #name: R_Wrist
									{
										OFFSET -0.067980 -0.232763 0.118463
									}
								}
							}
						}
					}
				}
			}
		}
	}
}
MOTION
Frames: 14
Frame Time: 0.041667
-0.008873 0.634692 0.015728 -3.787317 -9.000084 -17.262232 0.000000 0.000000 0.000000 15.916729 -5.381091 -53.756272 -25.708153 21.441384 73.194344 12.452207 14.589246 -16.253276 0.000000 0.000000 0.000000 -19.340135 2.247110 -51.803241 22.979753 -8.591854 41.068625 -3.626897 -24.179604 18.352502 0.000000 0.000000 0.000000 5.620111 -3.909914 24.326429 -2.554261 3.402789 33.999817 5.764264 4.312111 -32.027981 0.000000 0.000000 0.000000 -1.221270 0.495761 4.409116 0.000000 0.000000 0.000000 18.987178 -15.525684 -8.101144 -13.081952 1.705047 4.968068 -3.579235 -17.163895 -46.492283 0.000000 0.000000 0.000000 -18.168541 14.569296 -6.915075 13.393828 -1.936907 12.081295 -13.685794 5.341602 -53.386899 
-0.007594 0.634577 0.014727 -4.035126 -9.108876 -17.503324 0.000000 0.000000 0.000000 15.842487 -5.399496 -53.654787 -25.302298 21.218761 73.587333 12.414422 14.476067 -16.227995 0.000000 0.000000 0.000000 -19.037290 2.361010 -51.479096 22.872635 -8.498635 40.917295 -3.580194 -24.146824 18.436319 0.000000 0.000000 0.000000 5.441444 -3.834348 24.354447 -2.540128 3.407606 34.067191 5.755806 4.252991 -32.019592 0.000000 0.000000 0.000000 -1.166109 0.467888 4.585849 0.000000 0.000000 0.000000 18.984624 -15.566403 -8.139762 -13.053942 1.706351 4.981560 -3.422285 -17.077279 -46.678669 0.000000 0.000000 0.000000 -18.123514 14.664920 -6.980589 13.330278 -1.886013 11.882410 -13.482809 5.403342 -52.788594 
-0.006623 0.634496 0.013937 -4.229021 -9.195733 -17.730148 0.000000 0.000000 0.000000 15.782055 -5.412722 -53.538976 -24.990421 21.045744 73.895905 12.383019 14.405635 -16.201283 0.000000 0.000000 0.000000 -18.752864 2.468289 -51.233422 22.726668 -8.406619 40.900200 -3.534074 -24.096216 18.482909 0.000000 0.000000 0.000000 5.261998 -3.748374 24.286285 -2.573100 3.443873 34.204542 5.723220 4.195103 -32.047102 0.000000 0.000000 0.000000 -1.054598 0.412072 4.720671 0.000000 0.000000 0.000000 18.926829 -15.571661 -8.151238 -13.030874 1.707691 4.996727 -3.227623 -16.952615 -46.869107 0.000000 0.000000 0.000000 -18.064708 14.758057 -7.045311 13.292330 -1.825781 11.647658 -13.260903 5.456359 -52.108907 
-0.006018 0.634469 0.013416 -4.373387 -9.251663 -17.960865 0.000000 0.000000 0.000000 15.785906 -5.398895 -53.389960 -24.853234 20.975613 74.085714 12.343177 14.327922 -16.145071 0.000000 0.000000 0.000000 -18.486166 2.566029 -51.037633 22.552069 -8.320331 41.017918 -3.490813 -24.028248 18.486456 0.000000 0.000000 0.000000 5.077333 -3.656575 24.168344 -2.638772 3.498886 34.368825 5.675956 4.151604 -32.094106 0.000000 0.000000 0.000000 -0.916102 0.342027 4.848033 0.000000 0.000000 0.000000 18.856993 -15.549277 -8.139487 -13.012712 1.705020 4.993614 -3.072884 -16.849099 -47.010413 0.000000 0.000000 0.000000 -18.004425 14.850688 -7.112459 13.317674 -1.762929 11.397616 -13.053679 5.463568 -51.371924 
-0.005733 0.634505 0.013097 -4.480361 -9.271016 -18.197741 0.000000 0.000000 0.000000 15.834815 -5.368625 -53.206280 -24.849487 20.979099 74.175663 12.294590 14.271109 -16.068050 0.000000 0.000000 0.000000 -18.230032 2.652511 -50.848955 22.345407 -8.229116 41.206038 -3.458296 -23.959721 18.452405 0.000000 0.000000 0.000000 4.877215 -3.560772 24.049485 -2.717107 3.556897 34.518932 5.647728 4.148740 -32.151839 0.000000 0.000000 0.000000 -0.779244 0.271702 4.967971 0.000000 0.000000 0.000000 18.804559 -15.525698 -8.122211 -12.998946 1.694989 4.956525 -3.001937 -16.807040 -47.082431 0.000000 0.000000 0.000000 -17.967609 14.979640 -7.208940 13.353310 -1.716758 11.214494 -12.860400 5.461689 -50.671915 
-0.005591 0.634531 0.012817 -4.549814 -9.254957 -18.386117 0.000000 0.000000 0.000000 15.807798 -5.379993 -53.054001 -24.775036 20.920108 74.260312 12.271059 14.221838 -16.049894 0.000000 0.000000 0.000000 -18.014186 2.720869 -50.709435 22.113696 -8.129499 41.400331 -3.432660 -23.901637 18.420073 0.000000 0.000000 0.000000 4.694725 -3.471954 23.901146 -2.803825 3.614334 34.638066 5.633998 4.174924 -32.207956 0.000000 0.000000 0.000000 -0.645436 0.202331 5.065099 0.000000 0.000000 0.000000 18.746984 -15.492318 -8.094575 -12.967733 1.675820 4.884450 -2.986895 -16.796509 -47.087469 0.000000 0.000000 0.000000 -17.965922 15.124017 -7.318153 13.329676 -1.691877 11.117572 -12.636560 5.537414 -50.081941 
-0.005423 0.634486 0.012520 -4.583855 -9.220697 -18.510220 0.000000 0.000000 0.000000 15.678314 -5.442572 -52.959103 -24.579303 20.770906 74.368126 12.279639 14.164985 -16.102294 0.000000 0.000000 0.000000 -17.859618 2.768283 -50.643116 21.884204 -8.031843 41.578817 -3.403641 -23.846338 18.407648 0.000000 0.000000 0.000000 4.580810 -3.409636 23.726751 -2.901925 3.670738 34.705069 5.609322 4.196628 -32.240433 0.000000 0.000000 0.000000 -0.526284 0.140416 5.139155 0.000000 0.000000 0.000000 18.667815 -15.448700 -8.059109 -12.924029 1.655508 4.809902 -2.977066 -16.762492 -47.027297 0.000000 0.000000 0.000000 -17.988275 15.247810 -7.411376 13.244082 -1.682891 11.086435 -12.389682 5.685256 -49.615115 
-0.005206 0.634448 0.012253 -4.601970 -9.192693 -18.607472 0.000000 0.000000 0.000000 15.580591 -5.488843 -52.876593 -24.456978 20.666220 74.408205 12.285589 14.126722 -16.138304 0.000000 0.000000 0.000000 -17.743380 2.804311 -50.600130 21.685023 -7.945390 41.728008 -3.369590 -23.789559 18.410514 0.000000 0.000000 0.000000 4.551178 -3.384590 23.586902 -2.999211 3.719084 34.711249 5.572735 4.200545 -32.251172 0.000000 0.000000 0.000000 -0.453447 0.102049 5.202401 0.000000 0.000000 0.000000 18.581302 -15.420126 -8.036049 -12.879295 1.646727 4.788595 -2.956348 -16.700762 -46.934885 0.000000 0.000000 0.000000 -18.023770 15.338669 -7.479369 13.145350 -1.680435 11.079596 -12.150193 5.849120 -49.229386 
-0.005019 0.634475 0.012041 -4.613750 -9.173964 -18.679449 0.000000 0.000000 0.000000 15.584946 -5.486741 -52.798917 -24.506237 20.672682 74.332616 12.276541 14.117581 -16.124497 0.000000 0.000000 0.000000 -17.662588 2.828680 -50.560596 21.542144 -7.881016 41.823091 -3.338604 -23.743320 18.424211 0.000000 0.000000 0.000000 4.565727 -3.380798 23.485957 -3.067295 3.747789 34.676375 5.545673 4.196903 -32.256385 0.000000 0.000000 0.000000 -0.426477 0.087002 5.261543 0.000000 0.000000 0.000000 18.508837 -15.409143 -8.027329 -12.822245 1.649932 4.830329 -2.956647 -16.660189 -46.836913 0.000000 0.000000 0.000000 -18.042462 15.389503 -7.517397 13.061609 -1.679435 11.078729 -11.946491 5.992823 -48.916148 
-0.004896 0.634496 0.011848 -4.615606 -9.152308 -18.707651 0.000000 0.000000 0.000000 15.642101 -5.462570 -52.750598 -24.644892 20.734875 74.191544 12.267496 14.124684 -16.098029 0.000000 0.000000 0.000000 -17.629219 2.835974 -50.543742 21.462926 -7.844795 41.860033 -3.323561 -23.725433 18.440948 0.000000 0.000000 0.000000 4.577171 -3.378908 23.411909 -3.095535 3.752206 34.605981 5.544258 4.198345 -32.249428 0.000000 0.000000 0.000000 -0.418003 0.081689 5.306920 0.000000 0.000000 0.000000 18.500706 -15.399906 -8.019774 -12.796184 1.658408 4.883370 -3.004574 -16.667264 -46.732590 0.000000 0.000000 0.000000 -18.060168 15.397432 -7.523378 13.069294 -1.679498 11.077562 -11.838522 6.059650 -48.738153 
-0.004852 0.634501 0.011757 -4.609190 -9.127709 -18.703704 0.000000 0.000000 0.000000 15.706585 -5.436981 -52.729100 -24.793256 20.805822 74.045374 12.264486 14.139123 -16.082785 0.000000 0.000000 0.000000 -17.642212 2.826199 -50.548371 21.445222 -7.839129 41.866667 -3.319293 -23.723321 18.453870 0.000000 0.000000 0.000000 4.590752 -3.380930 23.364187 -3.092367 3.739872 34.528518 5.552911 4.199897 -32.231906 0.000000 0.000000 0.000000 -0.422274 0.083537 5.317981 0.000000 0.000000 0.000000 18.530000 -15.402854 -8.021136 -12.779786 1.667684 4.935124 -3.081101 -16.702349 -46.625267 0.000000 0.000000 0.000000 -18.057770 15.377394 -7.509203 13.107317 -1.681934 11.084172 -11.816582 6.062186 -48.680825 
-0.004886 0.634499 0.011828 -4.596117 -9.108617 -18.664921 0.000000 0.000000 0.000000 15.762756 -5.415378 -52.740199 -24.915559 20.868632 73.929907 12.269965 14.156299 -16.085404 0.000000 0.000000 0.000000 -17.690952 2.806408 -50.584800 21.477458 -7.858942 41.861598 -3.319021 -23.723277 18.457618 0.000000 0.000000 0.000000 4.618316 -3.388496 23.319025 -3.074120 3.721434 34.457597 5.556257 4.195534 -32.209955 0.000000 0.000000 0.000000 -0.442881 0.094374 5.298003 0.000000 0.000000 0.000000 18.557934 -15.419491 -8.033301 -12.757090 1.676917 4.988704 -3.157869 -16.737300 -46.517913 0.000000 0.000000 0.000000 -18.042563 15.344561 -7.485663 13.120476 -1.687642 11.104962 -11.817162 6.064155 -48.690207 
-0.004992 0.634494 0.012070 -4.573949 -9.101587 -18.579327 0.000000 0.000000 0.000000 15.808083 -5.398439 -52.799743 -25.001954 20.922892 73.856809 12.281475 14.182591 -16.096899 0.000000 0.000000 0.000000 -17.760971 2.785400 -50.669080 21.538602 -7.893117 41.843628 -3.336095 -23.748381 18.452394 0.000000 0.000000 0.000000 4.657485 -3.399424 23.268224 -3.063435 3.702755 34.341323 5.554436 4.186500 -32.167580 0.000000 0.000000 0.000000 -0.481674 0.114775 5.270926 0.000000 0.000000 0.000000 18.575705 -15.426784 -8.039689 -12.744743 1.686757 5.038054 -3.240812 -16.774046 -46.400122 0.000000 0.000000 0.000000 -18.044204 15.307456 -7.456886 13.117644 -1.698322 11.146832 -11.788354 6.106760 -48.714969 
-0.005169 0.634502 0.012437 -4.547061 -9.102754 -18.455892 0.000000 0.000000 0.000000 15.835061 -5.390430 -52.903810 -25.039210 20.957839 73.834076 12.295732 14.212768 -16.111803 0.000000 0.000000 0.000000 -17.840796 2.765793 -50.789096 21.616546 -7.935214 41.814530 -3.373552 -23.803383 18.437710 0.000000 0.000000 0.000000 4.701698 -3.414270 23.238951 -3.070864 3.683091 34.134488 5.545285 4.171068 -32.093851 0.000000 0.000000 0.000000 -0.528807 0.139746 5.237268 0.000000 0.000000 0.000000 18.603442 -15.407990 -8.027426 -12.768597 1.697403 5.071624 -3.331068 -16.812852 -46.280082 0.000000 0.000000 0.000000 -18.087083 15.261883 -7.419490 13.154571 -1.709239 11.185388 -11.721622 6.184152 -48.717060 
